REM DIRINDEX 1\2\4\8,1\2\4\9,1\2\4\10,1\2\5\11,1\2\5\12,1\2\5\13,1\2\5\14,1\2\5\15,1\3\6\16,1\3\6\17,1\3\6\18,1\3\7\19,1\3\7\20,1\3\7\21,1\3\7\22,1\3\7\23
REM DIRNAME "folder01","folder02","folder03","folder04","folder05","folder06","folder07","folder08","folder09","folder10","folder11","folder12","folder13","folder14","folder15","folder16","folder17","folder18","folder19","folder20","folder21","folder22","folder23"
TITLE ""
FILE "LR_black_phrase_A03.mp3" MP3
  TRACK 01 AUDIO
    TITLE "0:"
    INDEX 01 00:00:00
  TRACK 02 AUDIO
    TITLE "19:cjc171_11301"
    INDEX 01 00:00:10
  TRACK 03 AUDIO
    TITLE "0:"
    INDEX 01 00:01:31
  TRACK 04 AUDIO
    TITLE "20:cjc171_11302"
    INDEX 01 00:01:72
  TRACK 05 AUDIO
    TITLE "0:"
    INDEX 01 00:04:53
  TRACK 06 AUDIO
    TITLE "21:cjc171_11303"
    INDEX 01 00:05:55
  TRACK 07 AUDIO
    TITLE "0:"
    INDEX 01 00:08:00
  TRACK 08 AUDIO
    TITLE "22:cjc171_11304"
    INDEX 01 00:08:41
  TRACK 09 AUDIO
    TITLE "0:"
    INDEX 01 00:10:58
  TRACK 10 AUDIO
    TITLE "23:cjc171_11305"
    INDEX 01 00:11:12
  TRACK 11 AUDIO
    TITLE "0:"
    INDEX 01 00:13:31
  TRACK 12 AUDIO
    TITLE "19:cjc171_11306"
    INDEX 01 00:14:36
  TRACK 13 AUDIO
    TITLE "0:"
    INDEX 01 00:15:59
  TRACK 14 AUDIO
    TITLE "20:cjc171_11307"
    INDEX 01 00:16:25
  TRACK 15 AUDIO
    TITLE "0:"
    INDEX 01 00:17:73
  TRACK 16 AUDIO
    TITLE "21:cjc171_11308"
    INDEX 01 00:18:71
  TRACK 17 AUDIO
    TITLE "0:"
    INDEX 01 00:21:46
  TRACK 18 AUDIO
    TITLE "22:cjc171_11309"
    INDEX 01 00:22:12
  TRACK 19 AUDIO
    TITLE "0:"
    INDEX 01 00:24:01
  TRACK 20 AUDIO
    TITLE "23:cjc171_11310"
    INDEX 01 00:24:32
  TRACK 21 AUDIO
    TITLE "0:"
    INDEX 01 00:26:21
  TRACK 22 AUDIO
    TITLE "19:cjc171_11311"
    INDEX 01 00:27:27
  TRACK 23 AUDIO
    TITLE "0:"
    INDEX 01 00:28:52
  TRACK 24 AUDIO
    TITLE "20:cjc171_11312"
    INDEX 01 00:29:14
  TRACK 25 AUDIO
    TITLE "0:"
    INDEX 01 00:32:30
  TRACK 26 AUDIO
    TITLE "21:cjc171_11313"
    INDEX 01 00:33:29
  TRACK 27 AUDIO
    TITLE "0:"
    INDEX 01 00:35:58
  TRACK 28 AUDIO
    TITLE "22:cjc171_11314"
    INDEX 01 00:36:24
  TRACK 29 AUDIO
    TITLE "0:"
    INDEX 01 00:38:56
  TRACK 30 AUDIO
    TITLE "23:cjc171_11315"
    INDEX 01 00:39:12
  TRACK 31 AUDIO
    TITLE "0:"
    INDEX 01 00:41:46
  TRACK 32 AUDIO
    TITLE "19:cjc171_11316"
    INDEX 01 00:42:44
  TRACK 33 AUDIO
    TITLE "0:"
    INDEX 01 00:43:71
  TRACK 34 AUDIO
    TITLE "20:cjc171_11317"
    INDEX 01 00:44:31
  TRACK 35 AUDIO
    TITLE "0:"
    INDEX 01 00:46:73
  TRACK 36 AUDIO
    TITLE "21:cjc171_11318"
    INDEX 01 00:47:73
  TRACK 37 AUDIO
    TITLE "0:"
    INDEX 01 00:50:22
  TRACK 38 AUDIO
    TITLE "22:cjc171_11319"
    INDEX 01 00:50:63
  TRACK 39 AUDIO
    TITLE "0:"
    INDEX 01 00:53:16
  TRACK 40 AUDIO
    TITLE "23:cjc171_11320"
    INDEX 01 00:53:48
  TRACK 41 AUDIO
    TITLE "0:"
    INDEX 01 00:56:03
  TRACK 42 AUDIO
    TITLE "19:cjc171_11321"
    INDEX 01 00:57:06
  TRACK 43 AUDIO
    TITLE "0:"
    INDEX 01 00:58:19
  TRACK 44 AUDIO
    TITLE "20:cjc171_11322"
    INDEX 01 00:58:61
  TRACK 45 AUDIO
    TITLE "0:"
    INDEX 01 01:00:16
  TRACK 46 AUDIO
    TITLE "21:cjc171_11323"
    INDEX 01 01:01:14
  TRACK 47 AUDIO
    TITLE "0:"
    INDEX 01 01:04:22
  TRACK 48 AUDIO
    TITLE "22:cjc171_11324"
    INDEX 01 01:04:55
  TRACK 49 AUDIO
    TITLE "0:"
    INDEX 01 01:07:26
  TRACK 50 AUDIO
    TITLE "23:cjc171_11325"
    INDEX 01 01:07:46
  TRACK 51 AUDIO
    TITLE "0:"
    INDEX 01 01:10:17
  TRACK 52 AUDIO
    TITLE "19:cjc171_11326"
    INDEX 01 01:11:10
  TRACK 53 AUDIO
    TITLE "0:"
    INDEX 01 01:12:24
  TRACK 54 AUDIO
    TITLE "20:cjc171_11327"
    INDEX 01 01:12:67
  TRACK 55 AUDIO
    TITLE "0:"
    INDEX 01 01:14:56
  TRACK 56 AUDIO
    TITLE "21:cjc171_11328"
    INDEX 01 01:15:53
  TRACK 57 AUDIO
    TITLE "0:"
    INDEX 01 01:18:08
  TRACK 58 AUDIO
    TITLE "22:cjc171_11329"
    INDEX 01 01:18:48
  TRACK 59 AUDIO
    TITLE "0:"
    INDEX 01 01:20:66
  TRACK 60 AUDIO
    TITLE "23:cjc171_11330"
    INDEX 01 01:21:30
  TRACK 61 AUDIO
    TITLE "0:"
    INDEX 01 01:23:49
  TRACK 62 AUDIO
    TITLE "19:cjc171_11331"
    INDEX 01 01:24:64
  TRACK 63 AUDIO
    TITLE "0:"
    INDEX 01 01:26:12
  TRACK 64 AUDIO
    TITLE "20:cjc171_11332"
    INDEX 01 01:26:53
  TRACK 65 AUDIO
    TITLE "0:"
    INDEX 01 01:30:37
  TRACK 66 AUDIO
    TITLE "21:cjc171_11333"
    INDEX 01 01:31:37
  TRACK 67 AUDIO
    TITLE "0:"
    INDEX 01 01:33:63
  TRACK 68 AUDIO
    TITLE "22:cjc171_11334"
    INDEX 01 01:34:25
  TRACK 69 AUDIO
    TITLE "0:"
    INDEX 01 01:36:38
  TRACK 70 AUDIO
    TITLE "23:cjc171_11335"
    INDEX 01 01:36:67
  TRACK 71 AUDIO
    TITLE "0:"
    INDEX 01 01:38:72
  TRACK 72 AUDIO
    TITLE "19:cjc171_11336"
    INDEX 01 01:40:10
  TRACK 73 AUDIO
    TITLE "0:"
    INDEX 01 01:41:49
  TRACK 74 AUDIO
    TITLE "20:cjc171_11337"
    INDEX 01 01:42:15
  TRACK 75 AUDIO
    TITLE "0:"
    INDEX 01 01:45:07
  TRACK 76 AUDIO
    TITLE "21:cjc171_11338"
    INDEX 01 01:46:05
  TRACK 77 AUDIO
    TITLE "0:"
    INDEX 01 01:48:00
  TRACK 78 AUDIO
    TITLE "22:cjc171_11339"
    INDEX 01 01:48:37
  TRACK 79 AUDIO
    TITLE "0:"
    INDEX 01 01:50:34
  TRACK 80 AUDIO
    TITLE "23:cjc171_11340"
    INDEX 01 01:50:65
  TRACK 81 AUDIO
    TITLE "0:"
    INDEX 01 01:52:62
  TRACK 82 AUDIO
    TITLE "19:cjc171_11341"
    INDEX 01 01:53:68
  TRACK 83 AUDIO
    TITLE "0:"
    INDEX 01 01:55:19
  TRACK 84 AUDIO
    TITLE "20:cjc171_11342"
    INDEX 01 01:55:63
  TRACK 85 AUDIO
    TITLE "0:"
    INDEX 01 01:58:24
  TRACK 86 AUDIO
    TITLE "21:cjc171_11343"
    INDEX 01 01:59:15
  TRACK 87 AUDIO
    TITLE "0:"
    INDEX 01 02:00:62
  TRACK 88 AUDIO
    TITLE "22:cjc171_11344"
    INDEX 01 02:01:24
  TRACK 89 AUDIO
    TITLE "0:"
    INDEX 01 02:03:19
  TRACK 90 AUDIO
    TITLE "23:cjc171_11345"
    INDEX 01 02:03:46
  TRACK 91 AUDIO
    TITLE "0:"
    INDEX 01 02:05:41
  TRACK 92 AUDIO
    TITLE "19:cjc171_11346"
    INDEX 01 02:06:37
  TRACK 93 AUDIO
    TITLE "0:"
    INDEX 01 02:07:60
  TRACK 94 AUDIO
    TITLE "20:cjc171_11347"
    INDEX 01 02:08:20
  TRACK 95 AUDIO
    TITLE "0:"
    INDEX 01 02:10:72
  TRACK 96 AUDIO
    TITLE "21:cjc171_11348"
    INDEX 01 02:11:71
  TRACK 97 AUDIO
    TITLE "0:"
    INDEX 01 02:13:47
  TRACK 98 AUDIO
    TITLE "22:cjc171_11349"
    INDEX 01 02:14:03
  TRACK 99 AUDIO
    TITLE "0:"
    INDEX 01 02:15:52
  TRACK 100 AUDIO
    TITLE "23:cjc171_11350"
    INDEX 01 02:15:65
  TRACK 101 AUDIO
    TITLE "0:"
    INDEX 01 02:17:39
  TRACK 102 AUDIO
    TITLE "19:cjc171_11351"
    INDEX 01 02:18:38
  TRACK 103 AUDIO
    TITLE "0:"
    INDEX 01 02:19:63
  TRACK 104 AUDIO
    TITLE "20:cjc171_11352"
    INDEX 01 02:20:27
  TRACK 105 AUDIO
    TITLE "0:"
    INDEX 01 02:22:57
  TRACK 106 AUDIO
    TITLE "21:cjc171_11353"
    INDEX 01 02:23:55
  TRACK 107 AUDIO
    TITLE "0:"
    INDEX 01 02:25:34
  TRACK 108 AUDIO
    TITLE "22:cjc171_11354"
    INDEX 01 02:25:73
  TRACK 109 AUDIO
    TITLE "0:"
    INDEX 01 02:27:72
  TRACK 110 AUDIO
    TITLE "23:cjc171_11355"
    INDEX 01 02:28:25
  TRACK 111 AUDIO
    TITLE "0:"
    INDEX 01 02:30:24
  TRACK 112 AUDIO
    TITLE "19:cjc171_11356"
    INDEX 01 02:31:29
  TRACK 113 AUDIO
    TITLE "0:"
    INDEX 01 02:32:54
  TRACK 114 AUDIO
    TITLE "20:cjc171_11357"
    INDEX 01 02:33:18
  TRACK 115 AUDIO
    TITLE "0:"
    INDEX 01 02:35:42
  TRACK 116 AUDIO
    TITLE "21:cjc171_11358"
    INDEX 01 02:36:44
  TRACK 117 AUDIO
    TITLE "0:"
    INDEX 01 02:38:02
  TRACK 118 AUDIO
    TITLE "22:cjc171_11359"
    INDEX 01 02:38:39
  TRACK 119 AUDIO
    TITLE "0:"
    INDEX 01 02:40:22
  TRACK 120 AUDIO
    TITLE "23:cjc171_11360"
    INDEX 01 02:40:44
  TRACK 121 AUDIO
    TITLE "0:"
    INDEX 01 02:42:29
  TRACK 122 AUDIO
    TITLE "19:cjc171_11361"
    INDEX 01 02:43:32
  TRACK 123 AUDIO
    TITLE "0:"
    INDEX 01 02:44:51
  TRACK 124 AUDIO
    TITLE "20:cjc171_11362"
    INDEX 01 02:45:17
  TRACK 125 AUDIO
    TITLE "0:"
    INDEX 01 02:46:46
  TRACK 126 AUDIO
    TITLE "21:cjc171_11363"
    INDEX 01 02:47:44
  TRACK 127 AUDIO
    TITLE "0:"
    INDEX 01 02:49:43
  TRACK 128 AUDIO
    TITLE "22:cjc171_11364"
    INDEX 01 02:50:09
  TRACK 129 AUDIO
    TITLE "0:"
    INDEX 01 02:52:25
  TRACK 130 AUDIO
    TITLE "23:cjc171_11365"
    INDEX 01 02:52:55
  TRACK 131 AUDIO
    TITLE "0:"
    INDEX 01 02:54:73
  TRACK 132 AUDIO
    TITLE "19:cjc171_11366"
    INDEX 01 02:56:01
  TRACK 133 AUDIO
    TITLE "0:"
    INDEX 01 02:57:09
  TRACK 134 AUDIO
    TITLE "20:cjc171_11367"
    INDEX 01 02:57:48
  TRACK 135 AUDIO
    TITLE "0:"
    INDEX 01 02:59:53
  TRACK 136 AUDIO
    TITLE "21:cjc171_11368"
    INDEX 01 03:00:52
  TRACK 137 AUDIO
    TITLE "0:"
    INDEX 01 03:02:18
  TRACK 138 AUDIO
    TITLE "22:cjc171_11369"
    INDEX 01 03:02:55
  TRACK 139 AUDIO
    TITLE "0:"
    INDEX 01 03:04:24
  TRACK 140 AUDIO
    TITLE "23:cjc171_11370"
    INDEX 01 03:04:50
  TRACK 141 AUDIO
    TITLE "0:"
    INDEX 01 03:06:18
  TRACK 142 AUDIO
    TITLE "19:cjc171_11371"
    INDEX 01 03:07:19
  TRACK 143 AUDIO
    TITLE "0:"
    INDEX 01 03:08:50
  TRACK 144 AUDIO
    TITLE "20:cjc171_11372"
    INDEX 01 03:09:14
  TRACK 145 AUDIO
    TITLE "0:"
    INDEX 01 03:11:50
  TRACK 146 AUDIO
    TITLE "21:cjc171_11373"
    INDEX 01 03:12:48
  TRACK 147 AUDIO
    TITLE "0:"
    INDEX 01 03:14:21
  TRACK 148 AUDIO
    TITLE "22:cjc171_11374"
    INDEX 01 03:14:60
  TRACK 149 AUDIO
    TITLE "0:"
    INDEX 01 03:16:47
  TRACK 150 AUDIO
    TITLE "23:cjc171_11375"
    INDEX 01 03:17:04
  TRACK 151 AUDIO
    TITLE "0:"
    INDEX 01 03:18:64
  TRACK 152 AUDIO
    TITLE "19:cjc171_11376"
    INDEX 01 03:19:63
  TRACK 153 AUDIO
    TITLE "0:"
    INDEX 01 03:21:29
  TRACK 154 AUDIO
    TITLE "20:cjc171_11377"
    INDEX 01 03:21:68
  TRACK 155 AUDIO
    TITLE "0:"
    INDEX 01 03:25:05
  TRACK 156 AUDIO
    TITLE "21:cjc171_11378"
    INDEX 01 03:26:07
  TRACK 157 AUDIO
    TITLE "0:"
    INDEX 01 03:28:47
  TRACK 158 AUDIO
    TITLE "22:cjc171_11379"
    INDEX 01 03:29:05
  TRACK 159 AUDIO
    TITLE "0:"
    INDEX 01 03:31:66
  TRACK 160 AUDIO
    TITLE "23:cjc171_11380"
    INDEX 01 03:32:13
  TRACK 161 AUDIO
    TITLE "0:"
    INDEX 01 03:35:00
  TRACK 162 AUDIO
    TITLE "19:cjc171_11381"
    INDEX 01 03:35:70
  TRACK 163 AUDIO
    TITLE "0:"
    INDEX 01 03:37:18
  TRACK 164 AUDIO
    TITLE "20:cjc171_11382"
    INDEX 01 03:37:53
  TRACK 165 AUDIO
    TITLE "0:"
    INDEX 01 03:39:68
  TRACK 166 AUDIO
    TITLE "21:cjc171_11383"
    INDEX 01 03:40:69
  TRACK 167 AUDIO
    TITLE "0:"
    INDEX 01 03:42:23
  TRACK 168 AUDIO
    TITLE "22:cjc171_11384"
    INDEX 01 03:42:58
  TRACK 169 AUDIO
    TITLE "0:"
    INDEX 01 03:44:73
  TRACK 170 AUDIO
    TITLE "23:cjc171_11385"
    INDEX 01 03:45:18
  TRACK 171 AUDIO
    TITLE "0:"
    INDEX 01 03:47:34
  TRACK 172 AUDIO
    TITLE "19:cjc171_11386"
    INDEX 01 03:48:28
  TRACK 173 AUDIO
    TITLE "0:"
    INDEX 01 03:49:57
  TRACK 174 AUDIO
    TITLE "20:cjc171_11387"
    INDEX 01 03:50:17
  TRACK 175 AUDIO
    TITLE "0:"
    INDEX 01 03:52:33
  TRACK 176 AUDIO
    TITLE "21:cjc171_11388"
    INDEX 01 03:53:33
  TRACK 177 AUDIO
    TITLE "0:"
    INDEX 01 03:54:58
  TRACK 178 AUDIO
    TITLE "22:cjc171_11389"
    INDEX 01 03:55:14
  TRACK 179 AUDIO
    TITLE "0:"
    INDEX 01 03:57:15
  TRACK 180 AUDIO
    TITLE "23:cjc171_11390"
    INDEX 01 03:57:38
  TRACK 181 AUDIO
    TITLE "0:"
    INDEX 01 03:59:37
  TRACK 182 AUDIO
    TITLE "19:cjc171_11391"
    INDEX 01 04:00:41
  TRACK 183 AUDIO
    TITLE "0:"
    INDEX 01 04:02:02
  TRACK 184 AUDIO
    TITLE "20:cjc171_11392"
    INDEX 01 04:02:42
  TRACK 185 AUDIO
    TITLE "0:"
    INDEX 01 04:05:46
  TRACK 186 AUDIO
    TITLE "21:cjc171_11393"
    INDEX 01 04:06:45
  TRACK 187 AUDIO
    TITLE "0:"
    INDEX 01 04:08:72
  TRACK 188 AUDIO
    TITLE "22:cjc171_11394"
    INDEX 01 04:09:36
  TRACK 189 AUDIO
    TITLE "0:"
    INDEX 01 04:12:09
  TRACK 190 AUDIO
    TITLE "23:cjc171_11395"
    INDEX 01 04:12:40
  TRACK 191 AUDIO
    TITLE "0:"
    INDEX 01 04:15:15
  TRACK 192 AUDIO
    TITLE "19:cjc171_11396"
    INDEX 01 04:16:22
  TRACK 193 AUDIO
    TITLE "0:"
    INDEX 01 04:17:35
  TRACK 194 AUDIO
    TITLE "20:cjc171_11397"
    INDEX 01 04:17:74
  TRACK 195 AUDIO
    TITLE "0:"
    INDEX 01 04:19:36
  TRACK 196 AUDIO
    TITLE "21:cjc171_11398"
    INDEX 01 04:20:36
  TRACK 197 AUDIO
    TITLE "0:"
    INDEX 01 04:22:44
  TRACK 198 AUDIO
    TITLE "22:cjc171_11399"
    INDEX 01 04:23:06
  TRACK 199 AUDIO
    TITLE "0:"
    INDEX 01 04:25:11
  TRACK 200 AUDIO
    TITLE "23:cjc171_11400"
    INDEX 01 04:25:41
  TRACK 201 AUDIO
    TITLE "0:"
    INDEX 01 04:27:43
  TRACK 202 AUDIO
    TITLE "19:cjc171_11401"
    INDEX 01 04:28:47
  TRACK 203 AUDIO
    TITLE "0:"
    INDEX 01 04:30:03
  TRACK 204 AUDIO
    TITLE "20:cjc171_11402"
    INDEX 01 04:30:42
  TRACK 205 AUDIO
    TITLE "0:"
    INDEX 01 04:31:71
  TRACK 206 AUDIO
    TITLE "21:cjc171_11403"
    INDEX 01 04:32:72
  TRACK 207 AUDIO
    TITLE "0:"
    INDEX 01 04:34:63
  TRACK 208 AUDIO
    TITLE "22:cjc171_11404"
    INDEX 01 04:35:27
  TRACK 209 AUDIO
    TITLE "0:"
    INDEX 01 04:37:22
  TRACK 210 AUDIO
    TITLE "23:cjc171_11405"
    INDEX 01 04:37:52
  TRACK 211 AUDIO
    TITLE "0:"
    INDEX 01 04:39:49
  TRACK 212 AUDIO
    TITLE "19:cjc171_11406"
    INDEX 01 04:40:50
  TRACK 213 AUDIO
    TITLE "0:"
    INDEX 01 04:41:73
  TRACK 214 AUDIO
    TITLE "20:cjc171_11407"
    INDEX 01 04:42:35
  TRACK 215 AUDIO
    TITLE "0:"
    INDEX 01 04:45:61
  TRACK 216 AUDIO
    TITLE "21:cjc171_11408"
    INDEX 01 04:46:60
  TRACK 217 AUDIO
    TITLE "0:"
    INDEX 01 04:48:65
  TRACK 218 AUDIO
    TITLE "22:cjc171_11409"
    INDEX 01 04:49:21
  TRACK 219 AUDIO
    TITLE "0:"
    INDEX 01 04:52:14
  TRACK 220 AUDIO
    TITLE "23:cjc171_11410"
    INDEX 01 04:52:36
  TRACK 221 AUDIO
    TITLE "0:"
    INDEX 01 04:55:26
  TRACK 222 AUDIO
    TITLE "19:cjc171_11411"
    INDEX 01 04:56:22
  TRACK 223 AUDIO
    TITLE "0:"
    INDEX 01 04:57:35
  TRACK 224 AUDIO
    TITLE "20:cjc171_11412"
    INDEX 01 04:57:74
  TRACK 225 AUDIO
    TITLE "0:"
    INDEX 01 05:00:59
  TRACK 226 AUDIO
    TITLE "21:cjc171_11413"
    INDEX 01 05:01:60
  TRACK 227 AUDIO
    TITLE "0:"
    INDEX 01 05:04:15
  TRACK 228 AUDIO
    TITLE "22:cjc171_11414"
    INDEX 01 05:04:50
  TRACK 229 AUDIO
    TITLE "0:"
    INDEX 01 05:07:31
  TRACK 230 AUDIO
    TITLE "23:cjc171_11415"
    INDEX 01 05:07:55
  TRACK 231 AUDIO
    TITLE "0:"
    INDEX 01 05:10:37
  TRACK 232 AUDIO
    TITLE "19:cjc171_11416"
    INDEX 01 05:11:35
  TRACK 233 AUDIO
    TITLE "0:"
    INDEX 01 05:12:46
  TRACK 234 AUDIO
    TITLE "20:cjc171_11417"
    INDEX 01 05:13:06
  TRACK 235 AUDIO
    TITLE "0:"
    INDEX 01 05:15:50
  TRACK 236 AUDIO
    TITLE "21:cjc171_11418"
    INDEX 01 05:16:48
  TRACK 237 AUDIO
    TITLE "0:"
    INDEX 01 05:19:13
  TRACK 238 AUDIO
    TITLE "22:cjc171_11419"
    INDEX 01 05:19:48
  TRACK 239 AUDIO
    TITLE "0:"
    INDEX 01 05:22:13
  TRACK 240 AUDIO
    TITLE "23:cjc171_11420"
    INDEX 01 05:22:41
  TRACK 241 AUDIO
    TITLE "0:"
    INDEX 01 05:25:06
  TRACK 242 AUDIO
    TITLE "19:cjc171_11421"
    INDEX 01 05:26:13
  TRACK 243 AUDIO
    TITLE "0:"
    INDEX 01 05:27:12
  TRACK 244 AUDIO
    TITLE "20:cjc171_11422"
    INDEX 01 05:27:53
  TRACK 245 AUDIO
    TITLE "0:"
    INDEX 01 05:30:07
  TRACK 246 AUDIO
    TITLE "21:cjc171_11423"
    INDEX 01 05:31:08
  TRACK 247 AUDIO
    TITLE "0:"
    INDEX 01 05:33:44
  TRACK 248 AUDIO
    TITLE "22:cjc171_11424"
    INDEX 01 05:34:10
  TRACK 249 AUDIO
    TITLE "0:"
    INDEX 01 05:36:25
  TRACK 250 AUDIO
    TITLE "23:cjc171_11425"
    INDEX 01 05:36:60
  TRACK 251 AUDIO
    TITLE "0:"
    INDEX 01 05:39:00
  TRACK 252 AUDIO
    TITLE "19:cjc171_11426"
    INDEX 01 05:40:05
  TRACK 253 AUDIO
    TITLE "0:"
    INDEX 01 05:41:26
  TRACK 254 AUDIO
    TITLE "20:cjc171_11427"
    INDEX 01 05:41:65
  TRACK 255 AUDIO
    TITLE "0:"
    INDEX 01 05:44:26
  TRACK 256 AUDIO
    TITLE "21:cjc171_11428"
    INDEX 01 05:45:24
  TRACK 257 AUDIO
    TITLE "0:"
    INDEX 01 05:47:68
  TRACK 258 AUDIO
    TITLE "22:cjc171_11429"
    INDEX 01 05:48:32
  TRACK 259 AUDIO
    TITLE "0:"
    INDEX 01 05:51:07
  TRACK 260 AUDIO
    TITLE "23:cjc171_11430"
    INDEX 01 05:51:36
  TRACK 261 AUDIO
    TITLE "0:"
    INDEX 01 05:54:09
  TRACK 262 AUDIO
    TITLE "19:cjc171_11431"
    INDEX 01 05:55:13
  TRACK 263 AUDIO
    TITLE "0:"
    INDEX 01 05:56:30
  TRACK 264 AUDIO
    TITLE "20:cjc171_11432"
    INDEX 01 05:56:71
  TRACK 265 AUDIO
    TITLE "0:"
    INDEX 01 05:58:19
  TRACK 266 AUDIO
    TITLE "21:cjc171_11433"
    INDEX 01 05:59:16
  TRACK 267 AUDIO
    TITLE "0:"
    INDEX 01 06:02:24
  TRACK 268 AUDIO
    TITLE "22:cjc171_11434"
    INDEX 01 06:02:62
  TRACK 269 AUDIO
    TITLE "0:"
    INDEX 01 06:05:50
  TRACK 270 AUDIO
    TITLE "23:cjc171_11435"
    INDEX 01 06:06:06
  TRACK 271 AUDIO
    TITLE "0:"
    INDEX 01 06:08:72
  TRACK 272 AUDIO
    TITLE "19:cjc171_11436"
    INDEX 01 06:09:71
  TRACK 273 AUDIO
    TITLE "0:"
    INDEX 01 06:11:10
  TRACK 274 AUDIO
    TITLE "20:cjc171_11437"
    INDEX 01 06:11:51
  TRACK 275 AUDIO
    TITLE "0:"
    INDEX 01 06:13:18
  TRACK 276 AUDIO
    TITLE "21:cjc171_11438"
    INDEX 01 06:14:18
  TRACK 277 AUDIO
    TITLE "0:"
    INDEX 01 06:17:06
  TRACK 278 AUDIO
    TITLE "22:cjc171_11439"
    INDEX 01 06:17:47
  TRACK 279 AUDIO
    TITLE "0:"
    INDEX 01 06:20:48
  TRACK 280 AUDIO
    TITLE "23:cjc171_11440"
    INDEX 01 06:20:71
  TRACK 281 AUDIO
    TITLE "0:"
    INDEX 01 06:23:72
  TRACK 282 AUDIO
    TITLE "19:cjc171_11441"
    INDEX 01 06:24:67
  TRACK 283 AUDIO
    TITLE "0:"
    INDEX 01 06:26:23
  TRACK 284 AUDIO
    TITLE "20:cjc171_11442"
    INDEX 01 06:26:58
  TRACK 285 AUDIO
    TITLE "0:"
    INDEX 01 06:29:17
  TRACK 286 AUDIO
    TITLE "21:cjc171_11443"
    INDEX 01 06:30:21
  TRACK 287 AUDIO
    TITLE "0:"
    INDEX 01 06:32:22
  TRACK 288 AUDIO
    TITLE "22:cjc171_11444"
    INDEX 01 06:32:57
  TRACK 289 AUDIO
    TITLE "0:"
    INDEX 01 06:35:12
  TRACK 290 AUDIO
    TITLE "23:cjc171_11445"
    INDEX 01 06:35:32
  TRACK 291 AUDIO
    TITLE "0:"
    INDEX 01 06:37:64
  TRACK 292 AUDIO
    TITLE "19:cjc171_11446"
    INDEX 01 06:38:57
  TRACK 293 AUDIO
    TITLE "0:"
    INDEX 01 06:39:69
  TRACK 294 AUDIO
    TITLE "20:cjc171_11447"
    INDEX 01 06:40:29
  TRACK 295 AUDIO
    TITLE "0:"
    INDEX 01 06:43:08
  TRACK 296 AUDIO
    TITLE "21:cjc171_11448"
    INDEX 01 06:44:01
  TRACK 297 AUDIO
    TITLE "0:"
    INDEX 01 06:45:67
  TRACK 298 AUDIO
    TITLE "22:cjc171_11449"
    INDEX 01 06:46:26
  TRACK 299 AUDIO
    TITLE "0:"
    INDEX 01 06:47:70
  TRACK 300 AUDIO
    TITLE "23:cjc171_11450"
    INDEX 01 06:48:17
  TRACK 301 AUDIO
    TITLE "0:"
    INDEX 01 06:49:63
